<mxfile host="app.diagrams.net" modified="2024-05-09T15:16:30.880Z" agent="Mozilla/5.0 (Windows NT 10.0; Win64; x64) AppleWebKit/537.36 (KHTML, like Gecko) Chrome/124.0.0.0 Safari/537.36 Edg/124.0.0.0" etag="MTKv7u-Ls56siVPvGHNC" version="24.3.1" type="device">
  <diagram name="Page-1" id="m2K5TEeIyxoVtl-6TH2u">
    <mxGraphModel dx="1386" dy="797" grid="1" gridSize="10" guides="1" tooltips="1" connect="1" arrows="1" fold="1" page="1" pageScale="1" pageWidth="850" pageHeight="1100" math="0" shadow="0">
      <root>
        <mxCell id="0" />
        <mxCell id="1" parent="0" />
        <mxCell id="Ab90szdtHJ6ZRTBLOIzT-2" value="Admin" style="shape=umlActor;verticalLabelPosition=bottom;verticalAlign=top;html=1;outlineConnect=0;" parent="1" vertex="1">
          <mxGeometry x="400" y="270" width="60" height="130" as="geometry" />
        </mxCell>
        <mxCell id="Ab90szdtHJ6ZRTBLOIzT-3" value="&lt;h2&gt;Total Active Patient Number&lt;/h2&gt;" style="ellipse;whiteSpace=wrap;html=1;" parent="1" vertex="1">
          <mxGeometry x="540" y="80" width="150" height="80" as="geometry" />
        </mxCell>
        <mxCell id="LQUs0O18nRXYtGIv8AGs-1" value="" style="endArrow=classic;html=1;rounded=0;" parent="1" target="Ab90szdtHJ6ZRTBLOIzT-3" edge="1">
          <mxGeometry width="50" height="50" relative="1" as="geometry">
            <mxPoint x="450" y="270" as="sourcePoint" />
            <mxPoint x="500" y="220" as="targetPoint" />
          </mxGeometry>
        </mxCell>
        <mxCell id="LQUs0O18nRXYtGIv8AGs-6" value="" style="endArrow=classic;html=1;rounded=0;entryX=0;entryY=0.5;entryDx=0;entryDy=0;" parent="1" target="LQUs0O18nRXYtGIv8AGs-7" edge="1">
          <mxGeometry width="50" height="50" relative="1" as="geometry">
            <mxPoint x="470" y="359.5" as="sourcePoint" />
            <mxPoint x="540" y="359.5" as="targetPoint" />
          </mxGeometry>
        </mxCell>
        <mxCell id="LQUs0O18nRXYtGIv8AGs-7" value="&lt;h2&gt;Total Active Hospital&lt;/h2&gt;" style="ellipse;whiteSpace=wrap;html=1;" parent="1" vertex="1">
          <mxGeometry x="560" y="260" width="150" height="80" as="geometry" />
        </mxCell>
        <mxCell id="LQUs0O18nRXYtGIv8AGs-8" value="&lt;h2&gt;Total Pending Doctors&lt;/h2&gt;" style="ellipse;whiteSpace=wrap;html=1;" parent="1" vertex="1">
          <mxGeometry x="620" y="170" width="150" height="80" as="geometry" />
        </mxCell>
        <mxCell id="LQUs0O18nRXYtGIv8AGs-9" value="" style="endArrow=classic;html=1;rounded=0;entryX=0.008;entryY=0.725;entryDx=0;entryDy=0;entryPerimeter=0;" parent="1" target="LQUs0O18nRXYtGIv8AGs-8" edge="1">
          <mxGeometry width="50" height="50" relative="1" as="geometry">
            <mxPoint x="480" y="310" as="sourcePoint" />
            <mxPoint x="550" y="250" as="targetPoint" />
          </mxGeometry>
        </mxCell>
        <mxCell id="LQUs0O18nRXYtGIv8AGs-10" value="" style="endArrow=classic;html=1;rounded=0;entryX=0.765;entryY=1;entryDx=0;entryDy=0;entryPerimeter=0;" parent="1" target="LQUs0O18nRXYtGIv8AGs-11" edge="1">
          <mxGeometry width="50" height="50" relative="1" as="geometry">
            <mxPoint x="390" y="270" as="sourcePoint" />
            <mxPoint x="330" y="220" as="targetPoint" />
          </mxGeometry>
        </mxCell>
        <mxCell id="LQUs0O18nRXYtGIv8AGs-11" value="&lt;h2&gt;Total Active Doctor Number&lt;/h2&gt;" style="ellipse;whiteSpace=wrap;html=1;" parent="1" vertex="1">
          <mxGeometry x="195" y="70" width="150" height="80" as="geometry" />
        </mxCell>
        <mxCell id="LQUs0O18nRXYtGIv8AGs-12" value="" style="endArrow=classic;html=1;rounded=0;entryX=1.019;entryY=0.67;entryDx=0;entryDy=0;entryPerimeter=0;" parent="1" target="LQUs0O18nRXYtGIv8AGs-13" edge="1">
          <mxGeometry width="50" height="50" relative="1" as="geometry">
            <mxPoint x="380" y="300" as="sourcePoint" />
            <mxPoint x="310" y="270" as="targetPoint" />
          </mxGeometry>
        </mxCell>
        <mxCell id="LQUs0O18nRXYtGIv8AGs-13" value="&lt;h2&gt;Total active Diagnostic Centers Number&lt;/h2&gt;" style="ellipse;whiteSpace=wrap;html=1;" parent="1" vertex="1">
          <mxGeometry x="70" y="150" width="170" height="80" as="geometry" />
        </mxCell>
        <mxCell id="LQUs0O18nRXYtGIv8AGs-14" value="&lt;h2&gt;Total Pending Users&lt;/h2&gt;" style="ellipse;whiteSpace=wrap;html=1;" parent="1" vertex="1">
          <mxGeometry x="160" y="250" width="150" height="80" as="geometry" />
        </mxCell>
        <mxCell id="LQUs0O18nRXYtGIv8AGs-15" value="" style="endArrow=classic;html=1;rounded=0;entryX=1;entryY=0.5;entryDx=0;entryDy=0;" parent="1" target="LQUs0O18nRXYtGIv8AGs-14" edge="1">
          <mxGeometry width="50" height="50" relative="1" as="geometry">
            <mxPoint x="400" y="350" as="sourcePoint" />
            <mxPoint x="330" y="320" as="targetPoint" />
          </mxGeometry>
        </mxCell>
        <mxCell id="LQUs0O18nRXYtGIv8AGs-16" value="" style="endArrow=classic;html=1;rounded=0;entryX=0.5;entryY=1;entryDx=0;entryDy=0;" parent="1" target="LQUs0O18nRXYtGIv8AGs-17" edge="1">
          <mxGeometry width="50" height="50" relative="1" as="geometry">
            <mxPoint x="430" y="250" as="sourcePoint" />
            <mxPoint x="430" y="140" as="targetPoint" />
          </mxGeometry>
        </mxCell>
        <mxCell id="LQUs0O18nRXYtGIv8AGs-17" value="&lt;h2&gt;Total Active User Number&lt;/h2&gt;" style="ellipse;whiteSpace=wrap;html=1;" parent="1" vertex="1">
          <mxGeometry x="360" y="30" width="170" height="100" as="geometry" />
        </mxCell>
        <mxCell id="LQUs0O18nRXYtGIv8AGs-20" value="" style="endArrow=classic;html=1;rounded=0;entryX=0;entryY=0.375;entryDx=0;entryDy=0;entryPerimeter=0;" parent="1" target="LQUs0O18nRXYtGIv8AGs-21" edge="1">
          <mxGeometry width="50" height="50" relative="1" as="geometry">
            <mxPoint x="475" y="380" as="sourcePoint" />
            <mxPoint x="570" y="420" as="targetPoint" />
          </mxGeometry>
        </mxCell>
        <mxCell id="LQUs0O18nRXYtGIv8AGs-21" value="&lt;h2&gt;Total Pending Diagnostic Centers&amp;nbsp;&lt;/h2&gt;" style="ellipse;whiteSpace=wrap;html=1;" parent="1" vertex="1">
          <mxGeometry x="540" y="350" width="160" height="90" as="geometry" />
        </mxCell>
        <mxCell id="LQUs0O18nRXYtGIv8AGs-23" value="&lt;h2&gt;Total Pending Hospitals&lt;/h2&gt;" style="ellipse;whiteSpace=wrap;html=1;" parent="1" vertex="1">
          <mxGeometry x="160" y="350" width="150" height="80" as="geometry" />
        </mxCell>
        <mxCell id="LQUs0O18nRXYtGIv8AGs-24" value="" style="endArrow=classic;html=1;rounded=0;" parent="1" target="LQUs0O18nRXYtGIv8AGs-23" edge="1">
          <mxGeometry width="50" height="50" relative="1" as="geometry">
            <mxPoint x="400" y="370" as="sourcePoint" />
            <mxPoint x="330" y="320" as="targetPoint" />
          </mxGeometry>
        </mxCell>
        <mxCell id="LQUs0O18nRXYtGIv8AGs-25" value="&lt;h2&gt;Total Pending Reviews&lt;/h2&gt;" style="ellipse;whiteSpace=wrap;html=1;" parent="1" vertex="1">
          <mxGeometry x="180" y="450" width="150" height="80" as="geometry" />
        </mxCell>
        <mxCell id="LQUs0O18nRXYtGIv8AGs-27" value="" style="endArrow=classic;html=1;rounded=0;entryX=0.723;entryY=-0.01;entryDx=0;entryDy=0;entryPerimeter=0;" parent="1" target="LQUs0O18nRXYtGIv8AGs-25" edge="1">
          <mxGeometry width="50" height="50" relative="1" as="geometry">
            <mxPoint x="390" y="400" as="sourcePoint" />
            <mxPoint x="300" y="418" as="targetPoint" />
          </mxGeometry>
        </mxCell>
        <mxCell id="LQUs0O18nRXYtGIv8AGs-28" value="&lt;h2&gt;Total Pending Test Numbers&lt;/h2&gt;" style="ellipse;whiteSpace=wrap;html=1;" parent="1" vertex="1">
          <mxGeometry x="540" y="450" width="150" height="80" as="geometry" />
        </mxCell>
        <mxCell id="LQUs0O18nRXYtGIv8AGs-29" value="" style="endArrow=classic;html=1;rounded=0;entryX=0;entryY=0;entryDx=0;entryDy=0;" parent="1" target="LQUs0O18nRXYtGIv8AGs-28" edge="1">
          <mxGeometry width="50" height="50" relative="1" as="geometry">
            <mxPoint x="475" y="420" as="sourcePoint" />
            <mxPoint x="540" y="430" as="targetPoint" />
          </mxGeometry>
        </mxCell>
        <mxCell id="LQUs0O18nRXYtGIv8AGs-30" value="&lt;h1&gt;Actor as Admin&lt;/h1&gt;" style="text;html=1;align=center;verticalAlign=middle;resizable=0;points=[];autosize=1;strokeColor=none;fillColor=none;" parent="1" vertex="1">
          <mxGeometry x="345" y="570" width="200" height="70" as="geometry" />
        </mxCell>
        <mxCell id="RSEPtaVJYrJOlV_ZN3VG-2" value="" style="endArrow=classic;html=1;rounded=0;entryX=1;entryY=0.5;entryDx=0;entryDy=0;" parent="1" target="RSEPtaVJYrJOlV_ZN3VG-3" edge="1">
          <mxGeometry width="50" height="50" relative="1" as="geometry">
            <mxPoint x="390" y="360" as="sourcePoint" />
            <mxPoint x="170" y="340" as="targetPoint" />
          </mxGeometry>
        </mxCell>
        <mxCell id="RSEPtaVJYrJOlV_ZN3VG-3" value="&lt;h2&gt;Total Pending Vaccine Info&lt;/h2&gt;" style="ellipse;whiteSpace=wrap;html=1;" parent="1" vertex="1">
          <mxGeometry x="20" y="290" width="150" height="80" as="geometry" />
        </mxCell>
      </root>
    </mxGraphModel>
  </diagram>
</mxfile>
